<?xml version="1.0" standalone="no"?><!DOCTYPE svg PUBLIC "-//W3C//DTD SVG 1.1//EN" "http://www.w3.org/Graphics/SVG/1.1/DTD/svg11.dtd"><svg t="1587100809393" class="icon" viewBox="0 0 1024 1024" version="1.1" xmlns="http://www.w3.org/2000/svg" p-id="1230" xmlns:xlink="http://www.w3.org/1999/xlink" width="200" height="200"><defs><style type="text/css"></style></defs><path d="M512.955 66.394c-246.066 0-445.544 199.476-445.544 445.543 0 246.068 199.478 445.545 445.544 445.545 246.068 0 445.545-199.476 445.545-445.545 0-246.067-199.476-445.543-445.545-445.543z m0 852.346c-224.669 0-406.802-182.133-406.802-406.803s182.133-406.8 406.802-406.8c224.671 0 406.802 182.129 406.802 406.8S737.626 918.74 512.955 918.74z m290.573-426.175H587.996c-7.008-27.228-28.44-48.665-55.669-55.673V221.366c0-10.699-8.673-19.373-19.372-19.373s-19.371 8.675-19.371 19.373v215.526c-33.419 8.602-58.113 38.94-58.113 75.044 0 42.796 34.69 77.486 77.484 77.486 36.107 0 66.443-24.694 75.045-58.115h215.528c10.699 0 19.372-8.673 19.372-19.372-0.001-10.695-8.673-19.37-19.372-19.37z m-290.573 58.117c-21.396 0-38.743-17.347-38.743-38.745s17.347-38.741 38.743-38.741c21.398 0 38.743 17.343 38.743 38.741s-17.345 38.745-38.743 38.745z" p-id="1231"></path></svg>